PathFileType	4	(x/y/z)	S05_PSF_T01
DataRate	CameraRate	NumFrames	NumMarkers	Units	OrigDataRate	OrigDataStartFrame	OrigNumFrames
240	240	9	50	mm	240	1	427
Frame#	Time	Sternum			R.Acromium			L.Acromium			Top.Head			R.ASIS			L.ASIS			R.PSIS			L.PSIS			R.Great.Tro			L.Great.Tro			R.Iliac.Crest			L.Iliac.Crest			V.Sacral			R.Thigh.Upper.Post			R.Thigh.Lower.Ant			R.Thigh.Lower.Post			R.Thigh.Upper.Ant			R.Knee.Lat			R.Knee.Med			R.Shank.Upper.Post			R.Shank.Lower.Ant			R.Shank.Lower.Post			R.Shank.Upper.Ant			R.Ankle.Lat			R.Ankle.Med			R.Heel.Upper			R.Heel.Med			R.Heel.Lat			R.Toe.Lat			R.Toe.Med			R.Toe.Tip			L.Thigh.Upper.Post			L.Thigh.Lower.Ant			L.Thigh.Lower.Post			L.Thigh.Upper.Ant			L.Knee.Lat			L.Shank.Upper.Post			L.Shank.Lower.Ant			L.Shank.Lower.Post			L.Shank.Upper.Ant			L.Ankle.Lat			L.Ankle.Med			L.Heel.Upper			L.Heel.Med			L.Heel.Lat			L.Toe.Lat			L.Toe.Med			L.Toe.Tip			Cervical.Spine			Back			
		X1	Y1	Z1	X2	Y2	Z2	X3	Y3	Z3	X4	Y4	Z4	X5	Y5	Z5	X6	Y6	Z6	X7	Y7	Z7	X8	Y8	Z8	X9	Y9	Z9	X10	Y10	Z10	X11	Y11	Z11	X12	Y12	Z12	X13	Y13	Z13	X14	Y14	Z14	X15	Y15	Z15	X16	Y16	Z16	X17	Y17	Z17	X18	Y18	Z18	X19	Y19	Z19	X20	Y20	Z20	X21	Y21	Z21	X22	Y22	Z22	X23	Y23	Z23	X24	Y24	Z24	X25	Y25	Z25	X26	Y26	Z26	X27	Y27	Z27	X28	Y28	Z28	X29	Y29	Z29	X30	Y30	Z30	X31	Y31	Z31	X32	Y32	Z32	X33	Y33	Z33	X34	Y34	Z34	X35	Y35	Z35	X36	Y36	Z36	X37	Y37	Z37	X38	Y38	Z38	X39	Y39	Z39	X40	Y40	Z40	X41	Y41	Z41	X42	Y42	Z42	X43	Y43	Z43	X44	Y44	Z44	X45	Y45	Z45	X46	Y46	Z46	X47	Y47	Z47	X48	Y48	Z48	X49	Y49	Z49	X50	Y50	Z50	

1	0	NaN	NaN	NaN	-1656.1	1505	483.17	-1678	1520	154.46	-1654.5	1815.5	309.17	NaN	NaN	NaN	NaN	NaN	NaN	NaN	NaN	NaN	NaN	NaN	NaN	-1744.3	924.94	511.41	-1676.9	910.26	123.97	-1733.3	1082.9	485.85	-1697.3	1072.1	150.16	-1835.5	979.74	313.89	-1738.7	701.21	497.65	NaN	NaN	NaN	NaN	NaN	NaN	-1670.2	700.2	481.16	-1805.7	523.24	450.7	NaN	NaN	NaN	-1952.3	317.48	431.71	NaN	NaN	NaN	-1972.7	245.14	411.6	-1884.6	307.89	446.67	-1949.1	136.67	407.86	-1931.2	162.9	319.96	-2028.8	96.638	343.76	-2018.1	61.79	318.08	-2024.3	68.855	381.63	-1863.7	42.401	444.47	-1821.9	43.729	326.86	-1757.6	55.552	374.38	-1603.7	682.33	123.9	-1504.6	638.41	154.59	-1564.6	596.09	139.01	NaN	NaN	NaN	-1519	521.58	148.96	-1479	317.1	146.39	-1391.7	301.29	142.46	-1444.8	254.6	161.36	-1429.5	360.4	132.78	-1341	148.59	162.58	-1311.3	184.95	247.56	-1386.2	91.193	223.5	-1328.3	63.151	252.52	-1337	52.689	193.53	-1188.8	146.77	121.52	-1170.9	179.78	234.47	-1129.2	220.54	173.46	-1715.9	1553.1	326	-1828.4	1277.9	324.31
2	0.0041667	NaN	NaN	NaN	-1651.2	1504.3	482.63	-1673.1	1519.1	153.89	-1650	1814.8	308.31	NaN	NaN	NaN	NaN	NaN	NaN	NaN	NaN	NaN	NaN	NaN	NaN	-1739.7	924.34	511.04	-1671.6	909.75	123.61	-1728.3	1082.2	485.51	-1692.4	1071.4	149.81	-1830.6	979.08	313.4	-1734.5	700.59	497.49	NaN	NaN	NaN	NaN	NaN	NaN	-1665.9	699.47	480.83	-1804.8	524.97	451.35	NaN	NaN	NaN	-1949.4	317.73	431.55	NaN	NaN	NaN	-1971	245.98	411.67	-1882.6	308.05	446.73	-1948.2	137.27	407.94	-1930.2	163.52	320.02	-2028.3	97.836	343.89	-2017.9	62.981	318.15	-2024	69.979	381.7	-1863.6	42.444	444.63	-1821.7	43.775	326.92	-1757.6	55.279	374.52	-1597.2	682.3	123.92	-1498.1	638.74	154.84	-1557.8	596.21	139.18	NaN	NaN	NaN	-1512.4	521.5	149.06	-1474	316.71	146.24	-1386.9	300.08	142.82	-1440.2	253.88	161.35	-1424.1	359.61	133.04	-1337.8	147.05	162.73	-1308.2	182.95	247.91	-1383.8	89.507	223.41	-1326.2	61.238	252.45	-1334.9	51.108	193.41	-1186.1	144.28	122.11	-1167.9	176.59	235.39	-1125.6	217.35	174.79	-1710.8	1552.4	325.42	-1823.6	1277.3	323.93
3	0.0083333	NaN	NaN	NaN	-1646	1503.5	482.07	-1667.9	1518.2	153.29	-1645.2	1814.1	307.41	NaN	NaN	NaN	NaN	NaN	NaN	NaN	NaN	NaN	NaN	NaN	NaN	-1734.8	923.73	510.65	-1666	909.23	123.22	-1723.1	1081.4	485.15	-1687.2	1070.6	149.44	-1825.4	978.4	312.87	-1730.2	699.97	497.33	NaN	NaN	NaN	NaN	NaN	NaN	-1661.4	698.72	480.52	-1803.8	526.64	451.99	NaN	NaN	NaN	-1946.5	318.06	431.41	NaN	NaN	NaN	-1969.1	246.88	411.74	-1880.4	308.24	446.79	-1947.3	137.93	408.03	-1929.1	164.18	320.09	-2027.8	99.122	344.02	-2017.6	64.26	318.23	-2023.6	71.186	381.78	-1863.5	42.488	444.8	-1821.6	43.826	326.99	-1757.6	54.995	374.68	-1590.4	682.25	123.95	-1491.3	639.05	155.11	-1550.8	596.31	139.37	NaN	NaN	NaN	-1505.6	521.41	149.17	-1468.9	316.3	146.09	-1382	298.81	143.19	-1435.5	253.13	161.33	-1418.5	358.76	133.33	-1334.6	145.43	162.89	-1305.1	180.84	248.29	-1381.5	87.764	223.33	-1324.1	59.251	252.37	-1332.8	49.474	193.3	-1183.4	141.64	122.75	-1164.8	173.23	236.36	-1122	213.97	176.18	-1705.6	1551.6	324.81	-1818.5	1276.5	323.52
4	0.0125	NaN	NaN	NaN	-1640.7	1502.7	481.47	-1662.6	1517.3	152.66	-1640.2	1813.3	306.47	NaN	NaN	NaN	NaN	NaN	NaN	NaN	NaN	NaN	NaN	NaN	NaN	-1729.8	923.11	510.22	-1660.2	908.7	122.83	-1717.7	1080.5	484.77	-1681.7	1069.8	149.05	-1820	977.71	312.3	-1725.6	699.36	497.17	NaN	NaN	NaN	NaN	NaN	NaN	-1656.7	697.97	480.23	-1802.4	528.22	452.6	NaN	NaN	NaN	-1943.6	318.47	431.28	-1903.8	235.58	429.68	-1967.3	247.84	411.81	-1878.2	308.45	446.86	-1946.3	138.64	408.12	-1928	164.89	320.16	-2027.2	100.5	344.17	-2017.3	65.627	318.3	-2023.2	72.479	381.86	-1863.4	42.534	444.97	-1821.5	43.882	327.05	-1757.6	54.703	374.84	-1583.5	682.18	123.99	-1484.4	639.34	155.39	-1543.6	596.39	139.57	NaN	NaN	NaN	-1498.6	521.3	149.3	-1463.7	315.86	145.93	-1376.9	297.49	143.57	-1430.8	252.33	161.32	-1412.7	357.86	133.63	-1331.4	143.74	163.06	-1301.9	178.63	248.69	-1379.2	85.982	223.25	-1322.1	57.21	252.31	-1330.7	47.803	193.19	-1180.5	138.87	123.44	-1161.8	169.72	237.36	-1118.4	210.42	177.61	-1700.2	1550.9	324.17	-1813.2	1275.8	323.09
5	0.016667	NaN	NaN	NaN	-1635.2	1502	480.85	-1657.1	1516.4	152	-1635.1	1812.5	305.5	NaN	NaN	NaN	NaN	NaN	NaN	NaN	NaN	NaN	NaN	NaN	NaN	-1724.6	922.49	509.77	-1654.2	908.17	122.42	-1712.1	1079.7	484.36	-1676.1	1069.1	148.63	-1814.5	977.01	311.68	-1721	698.76	496.99	NaN	NaN	NaN	NaN	NaN	NaN	-1651.9	697.22	479.97	-1800.8	529.67	453.18	NaN	NaN	NaN	-1940.7	318.97	431.17	-1901.9	236.1	429.77	-1965.3	248.86	411.88	-1875.8	308.7	446.93	-1945.3	139.42	408.22	-1926.8	165.65	320.25	-2026.6	101.96	344.31	-2017	67.087	318.38	-2022.8	73.861	381.93	-1863.3	42.584	445.14	-1821.3	43.944	327.12	-1757.6	54.404	375	-1576.4	682.09	124.04	-1477.3	639.58	155.67	-1536.3	596.44	139.8	NaN	NaN	NaN	-1491.4	521.17	149.44	-1458.4	315.39	145.78	-1371.8	296.13	143.96	-1426	251.49	161.3	-1407	356.91	133.95	-1328.2	141.99	163.26	-1298.8	176.34	249.11	-1376.9	84.178	223.18	-1320.1	55.133	252.25	-1328.6	46.114	193.09	-1177.7	135.98	124.18	-1158.7	166.06	238.4	-1114.8	206.7	179.09	-1694.6	1550.1	323.51	-1807.7	1275.1	322.64
6	0.020833	NaN	NaN	NaN	-1629.6	1501.2	480.21	-1651.6	1515.5	151.32	-1629.9	1811.8	304.5	NaN	NaN	NaN	NaN	NaN	NaN	NaN	NaN	NaN	NaN	NaN	NaN	-1719.3	921.88	509.29	-1648	907.64	122	-1706.5	1078.9	483.93	-1670.4	1068.3	148.19	-1808.8	976.3	311.03	-1716.2	698.19	496.82	NaN	NaN	NaN	NaN	NaN	NaN	-1647	696.48	479.74	-1798.8	530.95	453.7	NaN	NaN	NaN	-1937.8	319.58	431.08	-1900	236.67	429.87	-1963.4	249.95	411.94	-1873.4	308.99	447.01	-1944.3	140.26	408.33	-1925.5	166.45	320.34	-2026	103.53	344.47	-2016.6	68.642	318.46	-2022.3	75.336	382.01	-1863.2	42.639	445.32	-1821.2	44.011	327.19	-1757.6	54.102	375.17	-1569.2	681.98	124.1	-1470.1	639.77	155.96	-1528.9	596.46	140.05	-1499.8	724.31	142.22	-1484.2	521.01	149.6	-1453.1	314.9	145.62	-1366.6	294.73	144.33	-1421.2	250.63	161.28	-1401.1	355.91	134.29	-1325	140.19	163.47	-1295.7	173.98	249.54	-1374.7	82.373	223.12	-1318.2	53.043	252.21	-1326.7	44.425	193	-1174.8	132.97	124.96	-1155.7	162.28	239.45	-1111.2	202.83	180.59	-1689	1549.3	322.82	-1802.2	1274.4	322.17
7	0.025	NaN	NaN	NaN	-1623.9	1500.5	479.53	-1645.9	1514.6	150.62	-1624.5	1811.1	303.47	NaN	NaN	NaN	NaN	NaN	NaN	NaN	NaN	NaN	NaN	NaN	NaN	-1713.8	921.28	508.79	-1641.7	907.12	121.58	-1700.7	1078.1	483.47	-1664.4	1067.5	147.73	-1802.9	975.6	310.33	-1711.3	697.63	496.64	NaN	NaN	NaN	NaN	NaN	NaN	-1642	695.75	479.55	-1796.4	532.05	454.17	NaN	NaN	NaN	-1934.9	320.3	431.01	-1898	237.28	429.97	-1961.3	251.1	411.99	-1870.9	309.32	447.09	-1943.3	141.17	408.45	-1924.2	167.3	320.44	-2025.3	105.19	344.62	-2016.2	70.297	318.53	-2021.9	76.908	382.09	-1863.1	42.699	445.49	-1821	44.084	327.26	-1757.6	53.798	375.34	-1562	681.84	124.17	-1462.8	639.91	156.26	-1521.4	596.45	140.32	-1493.7	724.26	142.27	-1477	520.83	149.77	-1447.8	314.39	145.48	-1361.4	293.32	144.7	-1416.5	249.73	161.27	-1395.3	354.87	134.65	-1321.9	138.35	163.69	-1292.7	171.57	249.99	-1372.7	80.588	223.08	-1316.5	50.963	252.17	-1324.8	42.757	192.91	-1171.9	129.86	125.78	-1152.8	158.4	240.53	-1107.6	198.83	182.1	-1683.2	1548.6	322.1	-1796.5	1273.6	321.67
8	0.029167	NaN	NaN	NaN	-1618.1	1499.8	478.84	-1640.1	1513.8	149.89	-1619.1	1810.3	302.42	NaN	NaN	NaN	NaN	NaN	NaN	NaN	NaN	NaN	NaN	NaN	NaN	-1708.3	920.69	508.26	-1635.3	906.62	121.15	-1694.9	1077.3	482.98	-1658.4	1066.8	147.25	-1797	974.91	309.6	-1706.3	697.12	496.46	NaN	NaN	NaN	-1740	615.94	473.46	-1636.9	695.05	479.4	-1793.7	532.93	454.58	NaN	NaN	NaN	-1932	321.13	430.96	-1895.8	237.93	430.08	-1959.2	252.31	412.04	-1868.3	309.69	447.18	-1942.2	142.16	408.57	-1922.8	168.2	320.55	-2024.5	106.95	344.78	-2015.7	72.057	318.61	-2021.3	78.583	382.17	-1863.1	42.764	445.66	-1820.8	44.163	327.33	-1757.6	53.495	375.51	-1554.7	681.67	124.25	-1455.6	639.98	156.56	-1514	596.39	140.61	-1487.4	724.17	142.3	-1469.8	520.62	149.95	-1442.6	313.86	145.34	-1356.3	291.9	145.06	-1411.8	248.8	161.27	-1389.6	353.79	135.02	-1318.8	136.49	163.94	-1289.8	169.12	250.45	-1370.7	78.847	223.06	-1314.8	48.919	252.15	-1323.1	41.131	192.84	-1169.1	126.66	126.63	-1150	154.43	241.61	-1104.1	194.71	183.62	-1677.4	1547.8	321.37	-1790.7	1272.9	321.14
9	0.033333	NaN	NaN	NaN	-1612.3	1499.1	478.12	-1634.3	1512.9	149.15	-1613.6	1809.6	301.35	NaN	NaN	NaN	NaN	NaN	NaN	NaN	NaN	NaN	NaN	NaN	NaN	-1702.7	920.12	507.71	-1628.7	906.13	120.71	-1689	1076.6	482.47	-1652.2	1066	146.74	-1790.9	974.24	308.82	-1701.3	696.63	496.27	NaN	NaN	NaN	-1735.3	615.56	473.39	-1631.8	694.38	479.29	-1790.5	533.6	454.93	NaN	NaN	NaN	-1929.1	322.08	430.94	-1893.7	238.64	430.19	-1957.1	253.58	412.07	-1865.6	310.11	447.27	-1941	143.22	408.71	-1921.4	169.14	320.68	-2023.7	108.83	344.94	-2015.2	73.929	318.67	-2020.7	80.365	382.25	-1863	42.836	445.83	-1820.6	44.247	327.41	-1757.5	53.196	375.68	-1547.5	681.47	124.34	-1448.3	639.98	156.85	-1506.6	596.29	140.91	-1480.9	724.04	142.33	-1462.6	520.38	150.14	-1437.4	313.31	145.22	-1351.1	290.48	145.38	-1407.2	247.86	161.29	-1383.8	352.69	135.4	-1315.8	134.63	164.2	-1286.9	166.64	250.92	-1368.9	77.171	223.05	-1313.3	46.937	252.15	-1321.5	39.57	192.78	-1166.4	123.39	127.51	-1147.2	150.39	242.68	-1100.7	190.48	185.12	-1671.5	1547.1	320.61	-1784.8	1272.2	320.59
